/* XPM */
static char *_645879659427[] = {
/* columns rows colors chars-per-pixel */
"50 50 232 2 ",
"   c #010100",
".  c #0A0800",
"X  c #130E00",
"o  c #1D1600",
"O  c #171100",
"+  c #231A00",
"@  c #3C2C00",
"#  c #2D2100",
"$  c #4B3600",
"%  c #4D3900",
"&  c #423200",
"*  c #513C01",
"=  c #412F00",
"-  c #554000",
";  c #5A4300",
":  c #654B00",
">  c #775400",
",  c #DE1703",
"<  c #E31901",
"1  c #DA2705",
"2  c #E22700",
"3  c #E03400",
"4  c #E53A00",
"5  c #F52E02",
"6  c #E22D22",
"7  c #915600",
"8  c #886600",
"9  c #8D6A01",
"0  c #8E6E0B",
"q  c #926C00",
"w  c #9E7902",
"e  c #8E7611",
"r  c #A27C00",
"t  c #B27B2A",
"y  c #DA4703",
"u  c #DE5702",
"i  c #DB4E1C",
"p  c #E44603",
"a  c #F64505",
"s  c #E25D00",
"d  c #E65704",
"f  c #F25100",
"g  c #DF6D02",
"h  c #DD6300",
"j  c #C87800",
"k  c #D97704",
"l  c #D77D16",
"z  c #DE6C10",
"x  c #E26300",
"c  c #E26B01",
"v  c #EC6902",
"b  c #FD6801",
"n  c #E07300",
"m  c #E77703",
"M  c #F97C04",
"N  c #E67A13",
"B  c #ED7518",
"V  c #D3422B",
"C  c #E06323",
"Z  c #CD7651",
"A  c #E4715D",
"S  c #E16F67",
"D  c #75BC02",
"F  c #6BB900",
"G  c #9B8600",
"H  c #A58301",
"J  c #AD8300",
"K  c #B98805",
"L  c #A59D00",
"P  c #B79502",
"I  c #B99A1B",
"U  c #8AAC00",
"Y  c #96A900",
"T  c #87BA01",
"R  c #9BBF03",
"E  c #95B705",
"W  c #91AD18",
"Q  c #AAA500",
"!  c #BAA401",
"~  c #B4AA07",
"^  c #A3B300",
"/  c #A9BA04",
"(  c #BBB201",
")  c #BCBD02",
"_  c #B7BA0C",
"`  c #B5A617",
"'  c #B8B517",
"]  c #ABA019",
"[  c #B7962A",
"{  c #B99337",
"}  c #98B521",
"|  c #99AD29",
" . c #BEA82C",
".. c #BCA635",
"X. c #ACAB23",
"o. c #C78B00",
"O. c #D98705",
"+. c #C49301",
"@. c #C39408",
"#. c #DB9905",
"$. c #D3861B",
"%. c #D58518",
"&. c #C39317",
"*. c #D59717",
"=. c #E18C00",
"-. c #E78400",
";. c #F48608",
":. c #E39703",
">. c #EC881C",
",. c #EB9015",
"<. c #C6AD04",
"1. c #DCA603",
"2. c #DCA609",
"3. c #D8A606",
"4. c #C2B202",
"5. c #C4BC0C",
"6. c #C5BA04",
"7. c #CBA71D",
"8. c #D4A516",
"9. c #D2A51B",
"0. c #D8A819",
"q. c #C2B615",
"w. c #C2B41C",
"e. c #CAB814",
"r. c #D0B507",
"t. c #E3AA01",
"y. c #E1A500",
"u. c #E1AE17",
"i. c #F3BB17",
"p. c #EAB416",
"a. c #D98924",
"s. c #C89829",
"d. c #D69727",
"f. c #C79C39",
"g. c #C88F2B",
"h. c #E4972E",
"j. c #EC8A23",
"k. c #C2AD24",
"l. c #C2AB2A",
"z. c #CBA528",
"x. c #D3A324",
"c. c #D7A929",
"v. c #D8B824",
"b. c #C4A433",
"n. c #CBA333",
"m. c #C2A23D",
"M. c #C8A935",
"N. c #D9AD3A",
"B. c #C7B436",
"V. c #D9B637",
"C. c #C2BA2C",
"Z. c #E6B52B",
"A. c #E4A43B",
"S. c #EAB639",
"D. c #F1AB29",
"F. c #9EC001",
"G. c #8BC200",
"H. c #A6C105",
"J. c #BEC008",
"K. c #BDC12C",
"L. c #CBC80F",
"P. c #DEC53B",
"I. c #ECC234",
"U. c #BFA746",
"Y. c #AABC48",
"T. c #BFB846",
"R. c #DB9D43",
"E. c #D9994C",
"W. c #D58B56",
"Q. c #E19959",
"!. c #C4A342",
"~. c #C9A947",
"^. c #D9AB43",
"/. c #D3A44B",
"(. c #D4AC4B",
"). c #D4A742",
"_. c #D9B648",
"`. c #D1AB52",
"'. c #C8B957",
"]. c #D3B656",
"[. c #CEA658",
"{. c #E1B64C",
"}. c #E5BA4A",
"|. c #EBBE4C",
" X c #E4B744",
".X c #E4B956",
"XX c #E3AD50",
"oX c #DB9D6F",
"OX c #E49274",
"+X c #E49D68",
"@X c #DCB466",
"#X c #D4B06C",
"$X c #E5A766",
"%X c #E5AA77",
"&X c #B4C144",
"*X c #D9C65A",
"=X c #CFC24B",
"-X c #EEC14C",
";X c #EEC045",
":X c #F2C44D",
">X c #F3C243",
",X c #E7C658",
"<X c #F3CD5B",
"1X c #F4C854",
"2X c #EAD15D",
"3X c #CAC465",
"4X c #D5C869",
"5X c #DAD467",
"6X c #E4C865",
"7X c #F3CB63",
"8X c #E6D869",
"9X c #F4D46C",
"0X c #F8D566",
"qX c #F6DA78",
"wX c #F0C779",
"eX c #E2E072",
"rX c #E8E57E",
"tX c #F9F97C",
"yX c #F9E26D",
"uX c #EABD8C",
"iX c #D7D481",
"pX c #F3D788",
"aX c #E8CB97",
"sX c #EFD08F",
"dX c #FBE387",
"fX c #EEEB98",
"gX c #F8E996",
"hX c #F8F696",
"jX c #F1F389",
"kX c #FAF3A7",
"lX c #F5EDA6",
"zX c None",
/* pixels */
"zXzXzXzXzXzXzXzXzXzXzXzXzXzXzXzXzXzXzXzXzXzXzXzXzXzXzXzXzXzXzXzXzXzXzXzXzXzXzXzXzXzXzXzXzXzXzXzXzXzX",
"zXzXzXzXzXzXzXzXzXzXzXzXzXzXzXzXzXzXzXzXzXzXzXzXzXzXzXzXzXzXzXzXzXzXzXzXzXzXzXzXzXzXzXzXzXzXzXzXzXzX",
"zXzXzXzXzXzXzXzXzXzXzXzXzXzXzXzXzXzXzXzXzXzXzXzXzXzXzXzXzXzXzXzXzXzXzXzXzXzXzXzXzXzXzXzXzXzXzXzXzXzX",
"zXzXzXzXzXzXzXzXzXzXzXzXzXzXzXzXzXzXzXzXzXzXzXzXzXzXzXzXzXzXzXzXzXzXzXzXzXzXzXzXzXzXzXzXzXzXzXzXzXzX",
"zXzXzXzXzXzXzXzXzXzXzXzXzXzXzXzXzXzXzXzXzXzXzXzXzXzXzXzXzXzXzXzXzXzXzXzXzXzXzXzXzXzXzXzXzXzXzXzXzXzX",
"zXzXzXzXzXzXzXzXzXzXzXzXzXzXzXzXzXzXzXzXzXzXzXzXzXzXzXzXzXzXzXzXzXzXzXzXzXzXzXzXzXzXzXzXzXzXzXzXzXzX",
"zXzXzXzXzXzXzXzXzXzXzXzXzXzXzXzXzXzXzXzXzXzXzXzXzXzXzXzXzXzXzXzXzXzXzXzXzXzXzXzXzXzXzXzXzXzXzXzXzXzX",
"zXzXzXzXzXzXzXzXzXzXzXzXzXzXzXzXzXzXzXzXzXzXzXzXzXzXzXzXzXzXzXzXzXzXzXzXzXzXzXzXzXzXzXzXzXzXzXzXzXzX",
"zXzXzXzXzXzXzXzXzXzXzXzXzXzXzXzXzXzXzXzXzXzXzXzXzXzXzXzXzXzXzXzXzXzXzXzXzXzXzXzXzXzXzXzXzXzXzXzXzXzX",
"zXzXzXzXzXzXzXzXzXzXzXzXzXzXzXzXzXzXzXzXzXzXzXzXzXzXzXzXzXzXzXzXzXzXzXzXzXzXzXzXzXzXzXzXzXzXzXzXzXzX",
"zXzXzXzXzXzXzXzXzXzXzXzXzXzXzXzXzXzXzXzXzXzXzXzXzXzXzXzXzXzXzXzXzXzXzXzXzXzXzXzXzXzXzXzXzXzXzXzXzXzX",
"zXzXzXzXzXzXzXzXzXzXzXzXzXzXzXzXzXzXzXzXeXeXeX2X:X:X.X).0.t.zXzXzXzXzXzXzXzXzXzXzXzXzXzXzXzXzXzXzXzX",
"zXzXzXzXzXzXzXzXzXzXzXzXzXzXzX' m.' zX].5XrXfXqX-X{.S.Z.c.N.|.zX .zXzXzXzXzXzXzXzXzXzXzXzXzXzXzXzXzX",
"zXzXzXzXzXzXzXzXzXzXzXzXzXzXL.'  .q.q.).*XrXkXqX|.^.Z.i.S._.:X(. .J.zXzXzXzXzXzXzXzXzXzXzXzXzXzXzXzX",
"zXzXzXzXzXzXzXzXzXzXzXjXtX5XB. .q. . .L.P.1X0X<X;Xu.c.N.}.-X-X].T.J.E F Y zXzXzXzXzXzXzXzXzXzXzXzXzX",
"zXzXzXzXzXzXzXzXzXzX0XhXjX8X~.X.R ' l.' Z.S. X XD.0.M.`.-X0XqX6X_.' E D L P zXzXzXzXzXzXzXzXzXzXzXzX",
"zXzXzXzXzXzXzXzX/.{.7XkXfX5X~.| D F.' m.8.0.N.j.B d.!.^.|.qXkXqX{.m.] L o.o.@.f.!.zXzXzXzXzXzXzXzXzX",
"zXzXzXzXzXzXzXd >.A.@XuXwX2X'.Y.&X&XB.0.x.s.l a 5 z *.0.^..X9X.X/.!.I P O.k %.f.~.f.zXzXzXzXzXzXzXzX",
"zXzXzXzXzXzX1 4 b >.R.OX$X{.*X4XiX4X_.0.c.x.$.a 5 s O.8.c.N.{.N.M.!.&.j y u k E.[.!.d.zXzXzXzXzXzXzX",
"zXzXzXzXzX4 < < a b B A W.~. XpXkX9X}.(.D.i.).a.g n a.b.8.0.m.0.0.n.$.u < 4 l +X%X^.>.M zXzXzXzXzXzX",
"zXzXzXzXzXd V V f v v 6 V $.^.7XqX5X'.`.S.S. X).d.#.d...e.<.] <.r.8.O.x f z R.aXaX$X>.M zXzXzXzXzXzX",
"zXzXzXzXa.l Z Z l k x 1 y z !.^.}.'.'.'..X0X9X6X(.0.9.z.5./ Y ^ 4.1.O.>.;.h.%XgXaXOXC p zXzXzXzXzXzX",
"zXzXzX`.~./.oXoXf.%.z t t { ..!.!.!.U.'.5XrXkXqX}.M.z.3.6.R F U ! 1.x.s.y.R.%X7X$XS 6 < 3 zXzXzXzXzX",
"zXzXzX.X.X.XaXaXT.7.! W W X...b.' } } K.=X6XdX0X|.c.9.c.6._ | / 4.t.n.M.Z.|..X|.XXW.i 3 3 zXzXzXzXzX",
"zXzXzX:X:X1XgXfX'.B.H.D E 5.b.b._ G.T _ M.(.}.:XS.3.&.{ ~ ` [ ' 4.3.9.N.|.<X0X1X_.f.%.x p zXzXzXzXzX",
"zXzXzX1X:X:X<X,X`.!. .P P @......._ _  .m.~.(.c.3.r 8 0 q 0 0 r J J 3.i.>XpXgX0X_.m.@.j g zXzXzXzXzX",
"zXzXzXz.c.Z.|.|.~.f.$.O.o.@.f.U.U.V.v.k...!.h.,.O.j > = @ = & % * * r 2.c._.4XN.s.[ K K j zXzXzXzXzX",
"zXzXzX9 J t.D. Xb.%.g h j @./.#X3X,XP.5.l.d.;.v x M 7 O .         . ; q q 9 9 9 q 9 9 9 9 zXzXzXzXzX",
"zXzXzX+ > 1.p.u.8.=.d 2 4 l Q.aXlX9X XM.7.2.m 4 2 x O.r zXzXzXzXzXzX+ + + + + + + + # + + zXzXzXzXzX",
"zXzXzXzX; +.1.t.y.=.u 3 p m Q.sXjX0X_.m.0.:.k p 3 h =.t.v.zXzXzXzXzXzX  .                 zXzXzXzXzX",
"zXzXzXzXzXw +.t.y.=.k c M ;.R.].1X1X_.M.9.#.m c c n O.1.b.U.zXzXzXzXzXzXzXzXzXzXzXzXzXzXzXzXzXzXzXzX",
"zXzXzXzXzX@ 9 o.=.=.=.n -.:.f.~._.v.e.w.k.d.#.*.g.g.*.1.n.M.6.zXzXzXzXzXzXzXzXzXzXzXzXzXzXzXzXzXzXzX",
"zXzXzXzXzX. % 7 j o.#.O.:.2.b.!.B.' / H.' l.0.z.~.~.c.0.z.' / R zXzXzXzXzXzXzXzXzXzXzXzXzXzXzXzXzXzX",
"zXzXzXzXzXzX. @ q r J #.y.2.b.l.) Q Y D R q.b._.:X:X_.(.q.R D U L zXzXzXzXzXzXzXzXzXzXzXzXzXzXzXzXzX",
"zXzXzXzXzXzXzXo @ @ ; J +.+.8.e.J.) ^ U / ' '.*X0XjXpX*XB.' F.Y Q J.zXzXzXzXzXzXzXzXzXzXzXzXzXzXzXzX",
"zXzXzXzXzXzXzXzX    + : > 8 o.<.( ( ~ L ( L.=X*XyXkXhX5X'...( Q Q ( ! zXzXzXzXzXzXzXzXzXzXzXzXzXzXzX",
"zXzXzXzXzXzXzXzXzXzXzXO O # 9 J H H r H L.L.(..X<XeX8X,X*X..H r w H r r zXzXzXzXzXzXzXzXzXzXzXzXzXzX",
"zXzXzXzXzXzXzXzXzXzXzXzX  O & % % $ $ - H <.I s.x.B.n.z...e * $ % % % % zXzXzXzXzXzXzXzXzXzXzXzXzXzX",
"zXzXzXzXzXzXzXzXzXzXzXzXzXzX          . - 9 8 8 8 8 8 8 8 ; .           zXzXzXzXzXzXzXzXzXzXzXzXzXzX",
"zXzXzXzXzXzXzXzXzXzXzXzXzXzXzXzXzXzXzX  X + o + + + o + o o zXzXzXzXzXzXzXzXzXzXzXzXzXzXzXzXzXzXzXzX",
"zXzXzXzXzXzXzXzXzXzXzXzXzXzXzXzXzXzXzX                    zXzXzXzXzXzXzXzXzXzXzXzXzXzXzXzXzXzXzXzXzX",
"zXzXzXzXzXzXzXzXzXzXzXzXzXzXzXzXzXzXzXzXzXzXzXzXzXzXzXzXzXzXzXzXzXzXzXzXzXzXzXzXzXzXzXzXzXzXzXzXzXzX",
"zXzXzXzXzXzXzXzXzXzXzXzXzXzXzXzXzXzXzXzXzXzXzXzXzXzXzXzXzXzXzXzXzXzXzXzXzXzXzXzXzXzXzXzXzXzXzXzXzXzX",
"zXzXzXzXzXzXzXzXzXzXzXzXzXzXzXzXzXzXzXzXzXzXzXzXzXzXzXzXzXzXzXzXzXzXzXzXzXzXzXzXzXzXzXzXzXzXzXzXzXzX",
"zXzXzXzXzXzXzXzXzXzXzXzXzXzXzXzXzXzXzXzXzXzXzXzXzXzXzXzXzXzXzXzXzXzXzXzXzXzXzXzXzXzXzXzXzXzXzXzXzXzX",
"zXzXzXzXzXzXzXzXzXzXzXzXzXzXzXzXzXzXzXzXzXzXzXzXzXzXzXzXzXzXzXzXzXzXzXzXzXzXzXzXzXzXzXzXzXzXzXzXzXzX",
"zXzXzXzXzXzXzXzXzXzXzXzXzXzXzXzXzXzXzXzXzXzXzXzXzXzXzXzXzXzXzXzXzXzXzXzXzXzXzXzXzXzXzXzXzXzXzXzXzXzX",
"zXzXzXzXzXzXzXzXzXzXzXzXzXzXzXzXzXzXzXzXzXzXzXzXzXzXzXzXzXzXzXzXzXzXzXzXzXzXzXzXzXzXzXzXzXzXzXzXzXzX",
"zXzXzXzXzXzXzXzXzXzXzXzXzXzXzXzXzXzXzXzXzXzXzXzXzXzXzXzXzXzXzXzXzXzXzXzXzXzXzXzXzXzXzXzXzXzXzXzXzXzX",
"zXzXzXzXzXzXzXzXzXzXzXzXzXzXzXzXzXzXzXzXzXzXzXzXzXzXzXzXzXzXzXzXzXzXzXzXzXzXzXzXzXzXzXzXzXzXzXzXzXzX"
};
