/* XPM */
static char *_646059276357[] = {
/* columns rows colors chars-per-pixel */
"50 50 249 2 ",
"   c #000000",
".  c #0D0000",
"X  c #07070E",
"o  c #190407",
"O  c #010013",
"+  c #01001A",
"@  c #150119",
"#  c #051111",
"$  c #0C1110",
"%  c #141110",
"&  c #13110B",
"*  c #230101",
"=  c #2D0000",
"-  c #2B0A0C",
";  c #330202",
":  c #3C0001",
">  c #3C0C0C",
",  c #360B06",
"<  c #3E1403",
"1  c #250118",
"2  c #35001C",
"3  c #2E1917",
"4  c #3C350F",
"5  c #01002B",
"6  c #030021",
"7  c #1A002D",
"8  c #16002A",
"9  c #000032",
"0  c #01003D",
"q  c #0B003B",
"w  c #0B0133",
"e  c #120034",
"r  c #1A0033",
"t  c #110038",
"y  c #1C1939",
"u  c #290128",
"i  c #380025",
"p  c #251531",
"a  c #33282F",
"s  c #1F2338",
"d  c #430101",
"f  c #4C0101",
"g  c #4E000B",
"h  c #440B0B",
"j  c #4C0B0B",
"k  c #540001",
"l  c #5B0002",
"z  c #520C0B",
"x  c #590409",
"c  c #4B0015",
"v  c #5A0012",
"b  c #46170F",
"n  c #640000",
"m  c #6B0002",
"M  c #6C0408",
"N  c #730101",
"B  c #7B0101",
"V  c #7A050A",
"C  c #611205",
"Z  c #680012",
"A  c #77080E",
"S  c #4A3B16",
"D  c #433713",
"F  c #542C0E",
"G  c #722E0C",
"H  c #5E0031",
"J  c #53052A",
"K  c #691327",
"L  c #4C2628",
"P  c #573A3B",
"I  c #562527",
"U  c #663636",
"Y  c #66272C",
"T  c #75491C",
"R  c #6F5518",
"E  c #77671D",
"W  c #7B6700",
"Q  c #554B2C",
"!  c #6F572D",
"~  c #7F6B21",
"^  c #000041",
"/  c #070745",
"(  c #000052",
")  c #171051",
"_  c #262758",
"`  c #00007B",
"'  c #000062",
"]  c #32006F",
"[  c #51004B",
"{  c #77004E",
"}  c #560178",
"|  c #560070",
" . c #69006A",
".. c #640070",
"X. c #4E3072",
"o. c #483C43",
"O. c #3E406B",
"+. c #6C5555",
"@. c #6D5A6D",
"#. c #7B6266",
"$. c #64647C",
"%. c #6D6566",
"&. c #695765",
"*. c #830101",
"=. c #8C0101",
"-. c #8A0706",
";. c #930101",
":. c #9C0000",
">. c #98030A",
",. c #8E0315",
"<. c #A40001",
"1. c #AC0101",
"2. c #A40707",
"3. c #B30000",
"4. c #BC0100",
"5. c #B60409",
"6. c #A61509",
"7. c #A5001D",
"8. c #B80F15",
"9. c #AC2A11",
"0. c #B03413",
"q. c #99002C",
"w. c #B10130",
"e. c #8D2A2A",
"r. c #972311",
"t. c #C40001",
"y. c #CB0000",
"u. c #C50806",
"i. c #D30000",
"p. c #DB0000",
"a. c #D20506",
"s. c #CF1508",
"d. c #E40000",
"f. c #EB0000",
"g. c #EE000D",
"h. c #F40000",
"j. c #FE0000",
"k. c #E30014",
"l. c #C33B17",
"z. c #C20035",
"x. c #924A19",
"c. c #B54619",
"v. c #8B6D14",
"b. c #B16D00",
"n. c #A95B26",
"m. c #947C2A",
"M. c #997D2A",
"N. c #867028",
"B. c #B36F2D",
"V. c #9A5120",
"C. c #C4461A",
"Z. c #D04A1B",
"A. c #CF5324",
"S. c #D36E2E",
"D. c #F75D25",
"F. c #890044",
"G. c #A60048",
"H. c #A83346",
"J. c #944A4A",
"K. c #8F7A4E",
"L. c #877978",
"P. c #8D6863",
"I. c #A7514F",
"U. c #9C842E",
"Y. c #AC8A35",
"T. c #A88739",
"R. c #B48A35",
"E. c #B29139",
"W. c #BB9A3C",
"Q. c #B99638",
"!. c #A2842E",
"~. c #A79600",
"^. c #D38F00",
"/. c #CE943A",
"(. c #CAAA3C",
"). c #D5A03F",
"_. c #A88A40",
"`. c #BE9D41",
"'. c #BC9740",
"]. c #B48D46",
"[. c #BFA041",
"{. c #908A64",
"}. c #908450",
"|. c #C89B46",
" X c #C58F44",
".X c #C4A244",
"XX c #CBA44B",
"oX c #CAA746",
"OX c #D5A84A",
"+X c #D8B34C",
"@X c #D3AB51",
"#X c #D0A750",
"$X c #DCB954",
"%X c #CFA850",
"&X c #E5AC44",
"*X c #E7B94D",
"=X c #E3BD52",
"-X c #EDC14E",
";X c #F3C64E",
":X c #ECCF5B",
">X c #E6C656",
",X c #F4CC53",
"<X c #F7D155",
"1X c #F4D459",
"2X c #F5DA5D",
"3X c #F9D859",
"4X c #ECD25D",
"5X c #F9E160",
"6X c #000095",
"7X c #1C0095",
"8X c #2A0098",
"9X c #30038E",
"0X c #0000A3",
"qX c #1800A6",
"wX c #0100BD",
"eX c #0A00B6",
"rX c #1400B3",
"tX c #2B00B1",
"yX c #3E32B5",
"uX c #4F008D",
"iX c #66008E",
"pX c #473CB0",
"aX c #5A3996",
"sX c #727385",
"dX c #6B6F86",
"fX c #5C4BA5",
"gX c #0000C3",
"hX c #0000CB",
"jX c #0100D1",
"kX c #0000DF",
"lX c #0900D6",
"zX c #1900D5",
"xX c #180ECA",
"cX c #0000E4",
"vX c #0000EA",
"bX c #0B03E9",
"nX c #1805E1",
"mX c #1410E7",
"MX c #0200F4",
"NX c #0000FD",
"BX c #3310C7",
"VX c #8C8989",
"CX c #928988",
"ZX c #9D9C9E",
"AX c #9B9888",
"SX c #A0A09F",
"DX c #A2A4A2",
"FX c #999CA1",
"GX c None",
/* pixels */
"GXGXGXGXGXGXGXGXGXGXGXGXGXGXGXGXGXGXGXGXGXGXGXGXGXt.y.p.1.:.GXGXGXGXGXGXGXGXGXGXGXGXGXGXGXGXGXGXGXGX",
"GXGXGXGXGXGXGXGXGXGXGXGXGXGXGXGXGXGXGXGXGXGXGXGXt.p.d.p.4.1.GXGXGXGXGXGXGXGXGXGXGXGXGXGXGXGXGXGXGXGX",
"GXGXGXGXGXGXGXGXGXGXGXGXGXGXGXGXGXGXGXj.GXGXGXt.i.f.f.p.t.3.<.GXGXGXj.j.GXGXGXGXGXGXGXGXGXGXGXGXGXGX",
"GXGXGXGXGXGXGXGXGXGXGXGXGXGXGXGXGXGXGXGXj.f.y.p.h.f.p.y.t.3.<.=.1.h.GXGXGXGXGXGXGXGXGXGXGXGXGXGXGXGX",
"GXGXGXGXGXGXGXGXGXGXGXGXGXGXGXGXGXGXGXGXGXf.t.4.4.p.i.t.t.<.B B :.f.GXGXGXGXGXGXGXGXGXGXGXGXGXGXGXGX",
"GXGXGXGXGXGXGXGXGXGXGXGXGXGXGXGXj.GXGXGXGXGX4.N k u.a.4.u.-.: n *.GXGXGXj.GXGXGXGXGXGXGXGXGXGXGXGXGX",
"GXGXGXGXGXGXGXGXGXGXGXGXGXGXGXGXGXj.j.j.j.p.:.f F ^.b.C ^.b., f =.f.j.j.GXGXGXGXGXGXGXGXGXGXGXj.GXGX",
"GXGXGXGXGXGXGXGXGXGXGXGXGXGXGXGXGXj.j.j.j.p.=.m G ~.W , ~.~.k k ,.w.w.G.GXGXGXGXGXGXGXGXGXGXGXj.GXGX",
"GXGXGXGXGXGXGXGXGXGXGXGXGXGXGXGXGXGXGXGXGXGX*.3.4.C , ; h C ;.B J qXrXrXeX[ <.<.<.GXGXGXGXGXGXj.GXGX",
"GXGXGXGXGXGXGXGXj.GXGXGXGXGXGXGXGXGXjXhXNX8XV t.p.;.k d N :.:.B [ lXNXzX| q.4.y.d.h.4.GXGXGXj.GXGXGX",
"GXGXGXGXGXGXGXGXj.GXGXGXGXGXGXGXGX9XqXhXNXzX[ 5.d.y.B d 4.i.<.Z ] bXMXuX7.4.t.d.h.f.t.1.GXh.j.GXGXGX",
"GXGXGXGXGXGXGXGXj.GXGXGXGXGX:.1.t.5. .bXNXvXrXF.p.y.N d 3.p.>.] gXMXuX,.2.<.1.t.y.i.d.p.1.GXGXGXGXGX",
"GXGXGXGXGXGXGXGXGXj.GXGXGX<.y.p.d.i.q.} aXpXmXBXiX .H n { ..uXlXzXiXH.c.6.:.6.A.S.A.s.p.3.<.GXGXGXGX",
"GXGXGXGXGXGXGXGXGXj.j.GX<.4.f.h.f.y.5.6.B.P.BXnXzXhX] H 7XhXzXzXuX7.c.B.9.6.0.*X4X|.C.u.4.1.:.GXGXGX",
"GXGXGXGXGXGXGXGXGXGXGX<.y.d.i.t.3.<.0.B.c.s.w.z.G.tXeXqXgX9XF.q.7.u.8.C./.&X=X2X4XXXB.c.4.1.<.GXGXGX",
"GXGXGXGXGXGXGXGXGXGXGX<.t.d.y.1.:.;.c./.C.y.f.j.k.{ } } } { t.a.t.4.3.s.&X<X2X5X:X$X[.n.5.1.<.GXGXGX",
"GXGXGXGXGXGXGXGXGXGXGX<.3.t.t.3.<.:.c.R.0.u.i.p.d.a.a.p.u.5.3.3.1.;.;.9. X=X,X3X3X*X.Xn.6.>.,.GXGXGX",
"GXGXGXGXGXGXGXGXGXGXGX<.1.4.4.3.2.S.S.l.u.2.x z z z 2.h.f.:.j > h > n r. X>X1X<X<X1XoXR.V.aXxXeXGXGX",
"GXGXGXGXGXGXGXGXGXGXGX0.l.Z.Z.Z.c.B.n.:.3.;.% # # # A h.h.-.% # $ $ I n.|.=X1X,X<X2X+XW._.yXMXgXGXGX",
"GXGXGXGXGXGXGXGXGXGXGX].|.&X&X*XOXT ; d ;.:.- $ $ $ -.h.h.>.% $ X @ N.#X#X*X-X;X<X2X$X(.T.yXMXhXGXGX",
"GXGXGXGXGXGXGXGXGXGXxXyX&.R T R T b o 8 ,.4.-.> # # A j.h.-.% # % z B.@X@X@X+X-X<X2X$X|.T.yXNXhXGXGX",
"GXGXGXGXGXGXGXGXGXwXjXMX9XG F > = ; 1 q J >.3.B > h -.u.d.2.h , f V n.XXXXXX+X-X<X1X>XoXT.fXxXjXGXGX",
"GXGXGXGXGXGXGXGXGXwXjXMXfX&X/.T ; ; 1 0 q i >.1.5.p.-.h 1.i.1.;.*.*.V.E.(.'..X*X;X,X1X>X[.Y.@.mXGXGX",
"GXGXGXGXGXGXGXGXGXgXrX} H.D.A.x.S b o 0 ^ t i ,.i.h.-.% z -.3.<.=.B x.U.E.W..X+X*X;X3X4XoXQ.P.mXGXGX",
"GXGXGXGXGXGXGXGXGXjX8X7.d.h.y.9.T 4 @ 0 0 0 ) K t.i.V % # h ;.=.B B G N.M.Y.`.XX$X-X2X:X#XQ.#.mXGXGX",
"GXGXGXGXGXGXGXGXGXjX8X7.f.h.4.=.C u 0 0 0 _ sXH.1.t.N % # > *.*.B n n G N.U.E.`.XX@X1X:X#XQ.L.mXGXGX",
"GXGXGXGXGXGXGXGXGXuX{ u.d.a.:.x 2 q ^ / _ $.ZXI.1.4.-.z h l B B n g Y ! E m.T.'..X#X>X<X=X(.#.mXGXGX",
"GXGXGXGXGXGXGXGXNX..a.h.d.3.N 2 0 ^ 0 / $.DXCXJ.:.3.3.:.*.B B n f : #.AXm.m.T.Q..X#X*X<X2X(.#.mXGXGX",
"GXGXGXGXGXGXGXGXNX..p.j.p.:.m 2 0 ^ 0 / dXCXU z n :.1.:.=.N n : = ; %.DXAX}.m.Y.W..X*X<X2X(.#.mXGXGX",
"GXGXGXGXGXGXGXGXiXG.p.p.3.*.c u ^ ^ 0 / dXL.j ; j e.e.M v K U 3 o = P L.ZX{.N.M.E..X+X,X2X+XK.pXGXGX",
"GXGXGXGXGXGXGXGXg.j.f.1.B g r 0 ^ 0 0 / $.L.b : I CX+.o 6 X.CXU = = ; L VX{.v.M.E.|.XX=X2X=X|._.GXGX",
"GXGXGXGXGXGXGX} a.h.d.=.c 7 0 ^ ^ 0 e 1 L I h U L.SX+.& 5 O.ZXCX+., = L CX%.D E U.E.'.+X,X1X$XE.GXGX",
"GXGXGXGXGXGXhX9X>.y.4.N u 0 ^ 0 ^ ^ 8 : d : d #.ZXL.o.6 9 _ sXSX#.> - 3 %.P , R U.Y.W.oX-X2X>XE.E GX",
"GXGXGXGXGXGXhX9XA B n x u 0 ^ ^ ^ ^ 8 : d : d +.{.a @ ^ ^ 0 ) sX{.3 o - - d C R m.Y.W..X%X4X>XE.S   ",
"GXGXGXGXGXGXgXeX8X8X8X] ) 0 0 ^ ^ ^ t ; : : d #.VX3 + ^ ^ 0 / sXL.z l n n :.5.I Q m.Y.W.%X$X+XE.S   ",
"GXGXGXGXGXGXwXjXNXNXMXhX6X^ 0 ^ 0 t i n k : : +.%.p 6 ^ / 0 / @.P.A =.1.5.p.5.i s ! m.Y..X%X.XY.S   ",
"GXGXGXGXGXGXwXjXNXNXMXhX` 0 0 0 q c :.p.*.; * - 3 w 0 ^ 0 ^ q J -.B <.y.f.y.V r ^ y ! U.E..XXXT.S   ",
"GXGXGXGXGXgXgXjXMXNXNXvX6X0 0 ^ t v <.y.=.l k d - 0 ^ ^ ^ ^ ^ u c N ;.t.h.t.M r ^ 0 a Q m.E.'.T.S   ",
"GXGXGXGXGXwXwXjXNXNXvXcX6X^ 0 ^ q v ;.:.=.=.:.*.g e ^ ^ ^ ^ ^ ^ 7 x =.4.h.t.M r ^ ^ ^ s ! U.Y.T.S   ",
"GXGXGXGXGXgXwXjXNXcXwX` ( ^ ^ ^ q v =.:.=.*.:.*.g t ^ 0 0 ^ 0 ^ 7 x ;.y.h.t.M r ^ ^ ^ ^ s ! Y.Y.S   ",
"GXGXGXGXGXwXjXvXNXkX0X( 9 ^ 0 ^ 0 i Z ;.1.1.<.*.g t ^ ^ ^ ^ ^ ^ 7 l ;.t.h.y.Z r ^ ^ ^ ^ / Q !.M.D   ",
"GXGXGXGXGXhXvXNXNXkX0X( 0 0 ^ ^ ^ ^ u B i.f.<.B g t ^ ^ ^ ^ 0 0 7 x *.3.f.t.V u q 0 9 0 0 Q E N.4   ",
"GXGXGXgXwXhXvXNXNXkX0X( 0 ^ ^ ^ ^ ^ u V i.d.;.N g t ^ ^ ^ 9 O O o l B ;.3.4.1.5.Z O O O X & 4 E R GX",
"GXGXGXwXwXgXvXNXNXkX0X( 9 5 5 5 5 5 u *.y.y.=.N g e ^ 0 9 +     o : n B ;.<.t.f.4.k o       & E GXGX",
"GXGXGXgXwXgXvXNXNXcX0X( +     O     : :.1.:.*.N g w 0 9 O         . ; n B =.<.4.p.i.d     GXGXGXGXGX",
"GXGXGXwXwXgXvXNXNXcX6X9         . ; *.y.4.;.N m k @ + O             o * = l ;.:.1.1.;   GXGXGXGXGXGX",
"GXGXGXgXwXhXvXNXNXcX6X+         . k 3.h.4.*.n k : .                       = n n l k * GXGXGXGXGXGXGX",
"GXGXGXGXGXgXvXNXNXkX6X+         . k 3.f.<.n l = .             GXGXGXGXGX  . . . . . GXGXGXGXGXGXGXGX",
"GXGXGXGXGXGXGXwX` ( (           . n 1.t.*.k = .       GXGXGXGXGXGXGXGXGXGXGXGXGXGXGXGXGXGXGXGXGXGXGX",
"GXGXGXGXGXGXGXGX                . N 1.:.B d .         GXGXGXGXGXGXGXGXGXGXGXGXGXGXGXGXGXGXGXGXGXGXGX"
};
