/* XPM */
static char *_645878924090[] = {
/* columns rows colors chars-per-pixel */
"50 50 22 1 ",
"  c gray6",
". c #101010",
"X c #151515",
"o c #191919",
"O c gray11",
"+ c #202020",
"@ c #272727",
"# c #282828",
"$ c gray18",
"% c gray19",
"& c #343434",
"* c gray23",
"= c #3F3F3F",
"- c gray25",
"; c gray27",
": c #484848",
"> c #4E4E4E",
", c #505050",
"< c #555555",
"1 c gray35",
"2 c #5D5D5D",
"3 c #606060",
/* pixels */
"     .. .  .     .....    .. .  .  ......   .  ...",
"&%$&%$&%$$$&%$$%%oO%&&$$$$%&$%&%$&$OX+%%$$%%&$@o..",
"2<,<,><<>:>1,::,,@#13<>:::,<>>1,>1>%o*1,>,121<-@X.",
"<>;==**=*-;==**=*o@,,;****=*****=:-#X%,-=:,<>:-%O.",
"1:*&&&&%$%=&&%#$#o@;-*%%%%%%*=&%&*%@X#-&$&-=&**#O.",
"2:%*=*=&+@%*-*@@$XO*%$$%$%$%-;=%$$@o.+%%#+$#+#$+X.",
"&#oO+++OXoo++OXXX.XOOooooooo+@OOOoXX.XooXXooXXoX..",
"$+oOOOOOooX.o++OOOO+OoOooO++..oOOOOOooo+++OooO+OOO",
">=$&=**&$$@X$;-*=%*;*%*&%*--Oo$&=**&%$%;;*=&%-;=%$",
"2:%*&**&%$+.$:=&&%&;*%&=**==O+*=*&*&%%&;-*&=;:;*%#",
"1;%%$$$$$#OX#-&%&&=-*%%&&%%#X+*%$$%$$#%*&%%->-&$#+",
"&&%%$+$$@+O.%:*%==->-*%##$$OXO$@+@#$@+@$#@&--%+@#$",
"@+OOOoOOXXX O$+@@#$$#@OooOOX.XOoXoOOoXoOOo+##OXoO+",
"#+oooXXXXoooXXXX..XXoooXXXoooXXXX.XXoXXXXoXXXXX...",
";=&-*#@#&=-&$$%@XO$&&&&$#&&&&%##+.O$%%##$&$###@OX.",
"1>=:;*===-;=&&*#X#*=****%**=-=**$X+%**&&**&%&%$#O.",
"2:%*--:-%$%%%%%+X%=%%%%$$$%%*===%X+%&%%=&%%%$%%$O.",
">=%$$&%$@@@%%%#oX&=%%$@@@%%$$$%$+X@%=-*$$%%$@$$#o.",
"%$@oO@ooooO@#@OX.@$@@+ooo+@@OO+OX.O#$%$+O@@+o+@oX ",
"@O.XX.XX....X..XXXX.XX.XXX.XXXXX.X.X.XX...XXXX....",
"%%$@#$$#@Oo.o@#&*%#@$&%#@##@+$&%$@#####XO$*%@@$$#@",
":;=&&==*%#+X+&=-:-=&-:-&&=*%&->;*%&=&&&o+=:;&*==*%",
"2:%$%%&%%%#X#=&&&===*&%*--*%=-=&%%%%%#+XO&=-=&%%%%",
"2;##$%##%$+X#-&%***-%@#%*%%%&&%%%####@OXO%==*$##$$",
";&OO+#++#@o.@&$$&$$&#OO@@O+#$@O#@OOOOOO.O#&%#+OO@#",
"#OX.XXXXXX..XXXXooXoX..XXXXXX..XXXX..X...XooXX.XXX",
"&$#$#OOo.O+@#$$@O##OOOo.X+$$++@@++Xo#$@+O+O+@+Oo..",
",:-:;&%#.$-=;>>-&;;%%$+Xo&::*%==*$oO;:=%%%%&=&#+X.",
",;*-;==$X$=*&*;-=*&%%%+XO->-&%&*%@Xo=;--=*%&&%$@X.",
"1;#%&=*@X#&$$%**&%$$###oO-;*%%%#@+Xo&*&&**%#$###o.",
"2-++@$@o.@#@@$%#+##+O@$oo&*$$$$@++XX##O+@$@O++@#O.",
"%@X.XXX .XoXXXoXXooXXXXX.OOoooXXXX..ooX.XoXXX.XoX.",
"%@O++OOOOXX.o++Oo++OO++OO++OoO+ooXoo.oO++O++oO++Oo",
"2>=:;*=&$@o.$;-&%=;==-;*%;;=%*:*$$$@.@=:;=;-%&-:*$",
"<>*==*&*%#OX$;=%&=---;;=&*=&%&==*%$+X$:-=*-;=*==&%",
"<-$#$%$$%#O.#=&%%$%***=%$$$%%&%=&$@O.$>*$$&=*%$#$$",
"2;@O#$#@$#O.#=%**#+@@#%#++#%*==&$@+O.#--&+@#%#+@+@",
"=$XXoOooOoX.o@++@oXXXoOoXXo+@##+OXXX.O@#+XXoOoXXXo",
"@OoXooXXoooXXX.XoooXoXXooXXX.XoXXXXooXXXXXXoXXXX..",
";=*=-&$#&==*%@XO&--*&%#%&*%@X+=%@#%&&*&*%$*=**&#O.",
"1,-;-*&%*-;=&#o+-:-=**&&*=*$X@:=&&*---*=&&=-==&$O.",
"3,=&%&%$%%%%%$X@=&%%$$$$$$$$XO==*%&=-&$$%%$$$%$+X.",
"<:&*===*&&==&$X+&#@@$$@@@+@+XO%*%#@$&&$@@@@@@@++o.",
"-%@$%$%$#$$%$+XX+OXO++oooooo.o@@+ooO+@@oooooooooX.",
"#OXXXXX..XXXX.X.X.X.XXXXX..X..X.XX.XXX.X.....XX...",
"=*&%@@#@X+%****&$$#@+#&&$@%&$o.@%$$$%#@+@@Xo$&*%#@",
"<,>;*&=$X#-:>::;===&&*;;=&=;&+X%--===&%%%$o+=:;=&%",
"3<--==&@X$=*%&&&%%&*==&*=&%%@oX%=%%%&%&=%+.O=*&%%%",
"3,=*&&&@X%;&$%%##@#%&&%&&%$@+oX@%%##$&*%#OXO&$@$##",
"3<=&%%%@X&:&%%%#++O+$%%%%%#++o.o@$@+$**@+OXo$@@$@+"
};
