/* XPM */
static char *_645868815749[] = {
/* columns rows colors chars-per-pixel */
"50 50 128 2 ",
"   c #020202",
".  c #0B0B0B",
"X  c #150C0B",
"o  c #180E0C",
"O  c #11100F",
"+  c #141414",
"@  c #1A1616",
"#  c #1A1817",
"$  c #1C1B1B",
"%  c #231615",
"&  c #281613",
"*  c #251816",
"=  c #2A1917",
"-  c #231C1A",
";  c #2D1B19",
":  c #331D1A",
">  c #381F1C",
",  c #22211F",
"<  c #2C211E",
"1  c #33221B",
"2  c #3C221D",
"3  c #332B1C",
"4  c #3D2C1E",
"5  c #1E1F20",
"6  c #1F2020",
"7  c #232323",
"8  c #282322",
"9  c #272828",
"0  c #2C2C2C",
"q  c #332423",
"w  c #3A2623",
"e  c #352827",
"r  c #3A2E20",
"t  c #352928",
"y  c #3C2D2C",
"u  c #3F3321",
"i  c #3C312D",
"p  c #2F3030",
"a  c #343434",
"s  c #3E3231",
"d  c #363738",
"f  c #3C3C3C",
"g  c #41231F",
"h  c #422F1F",
"j  c #42331E",
"k  c #452521",
"l  c #492722",
"z  c #422F23",
"x  c #4D2924",
"c  c #522C26",
"v  c #562D28",
"b  c #5A2F29",
"n  c #443521",
"m  c #4B3623",
"M  c #4B3A24",
"N  c #41332E",
"B  c #453D2F",
"V  c #533026",
"C  c #513F25",
"Z  c #5D312B",
"A  c #443533",
"S  c #64342D",
"D  c #68362F",
"F  c #643E2E",
"G  c #6B3730",
"H  c #6C3932",
"J  c #733B33",
"K  c #793D35",
"L  c #544226",
"P  c #54442A",
"I  c #594629",
"U  c #5D4A2B",
"Y  c #474034",
"T  c #4F4535",
"R  c #584B37",
"E  c #54443A",
"W  c #574B39",
"Q  c #66432E",
"!  c #614C2C",
"~  c #64502D",
"^  c #6A542F",
"/  c #6C4231",
"(  c #604E3B",
")  c #744634",
"_  c #714E33",
"`  c #7A4A36",
"'  c #6D5631",
"]  c #62543D",
"[  c #735031",
"{  c #7C5737",
"}  c #755C34",
"|  c #7A5D36",
" . c #7B6136",
".. c #3F4040",
"X. c #434343",
"o. c #474848",
"O. c #4B4B4B",
"+. c #504F4E",
"@. c #53524F",
"#. c #4F4F50",
"$. c #535353",
"%. c #5B5A57",
"&. c #5B5B5B",
"*. c #705F44",
"=. c #605F5E",
"-. c #736145",
";. c #62605E",
":. c #636262",
">. c #855C3A",
",. c #816639",
"<. c #8D623E",
"1. c #85693A",
"2. c #8C6D3D",
"3. c #90643F",
"4. c #926B3F",
"5. c #8E713E",
"6. c #91713E",
"7. c #946940",
"8. c #9C6C43",
"9. c #947341",
"0. c #9B7643",
"q. c #9C7A43",
"w. c #A27C46",
"e. c #A87E47",
"r. c #A68247",
"t. c #AA8449",
"y. c #B0864A",
"u. c #B58B4C",
/* pixels */
".     . . O . .       . .       . .       . + + + . . . . . .     . . . + + + . . .     .     . . . ",
". # 7 0 p p a p 9 5 7 0 a a 0 0 0 0 0 7 7 9 a a p p 9 8 9 0 9 6 8 9 8 7 7 9 9 9 6 5 $ # # # + # .   ",
". 9 $.%.&.$.&.=.#.o.o.$.=.:.&.$.$.&.&.$.o.o.%.%.$.&.#.O.%.&.$.O.o.#.O.X.f f X.X.A f d d 0 0 p 0 +   ",
". p :.%.&.:.&.$.O.o.O.$.&.=.$.O.$.:.:.&.#.o.#.$.&.=.&.#.&.:.:.&.&.&.+.X.X...f ....X.f d d a 0 0 +   ",
". a &.&.&.:.$.O.o.#.#.$.$.$.#.O.O.$.$.X.d a d ..o.o.X...X.X.o.#.#.#.+.O.o.X.A d ..X...f d a p 0 #   ",
"+ p $.&.&.&.#.o.#.%.&.&.#.o.$.O.d f p $ # # 6 7 7 7 8 7 $ # $ 9 p d X.#.#.#.o.f ..o.o...f d d 0 # . ",
". a :.:.%.O.O.$.:.:.%.O.X.f ..a 7 5 - % % * = - $ ; : = * % % $ 5 5 0 f ..o.O.X...X.....X...d p +   ",
". d :.=.#.o.#.&.&.%.O.f d a 9 $ @ @ % ; ; ; ; - 5 > > ; ; ; = % @ @ 6 9 a X.O.O.o.o...f ..A f 0 $   ",
"+ d :.&.$.#.%.$.#...f d a 9 $ - = = ; > : ; : - - k k > > : = ; = = % $ 9 d f +.O.o.X.X.f Y ..p 5 + ",
". d :.:.&.$.#.o...d p 7 6 $ * * ; = > k > : > - , c v k 2 : = : : = * - $ 5 9 f X...f ....X...0 $ . ",
". 0 &.:.:.$.o.A d p 7 # @ @ = : ; = > l 2 ; > - < b Z x > > ; > > = : = @ @ $ 9 a d d f ..X...p $ . ",
"  9 $.&.:.:.O.d p 6 $ * = = : : ; = 2 l g > > - < b S x g ; ; k k : = = = = = $ 7 0 d d a d d p 5 + ",
"  9 %.:.=.$...p 9 - & = ; : > : : ; > x g > k ; < b S x l > : k l : : = : : = * - 7 0 a a a a a 5 . ",
". 0 &.:.&.X.p 9 6 = ; ; = = > > > ; > x g g x : 8 b S x x k : k x > : ; : : : ; % # 7 0 d a p d 6 . ",
"  7 $.#.o.d 7 $ ; : : > : : k k > ; g b k w x : < G G x c k > k x l g : : k k : = % $ 7 d ..f p 5 + ",
"  9 %.#.f 0 $ * : 2 w > : : k k > ; l S l 2 x < < H G c v x > x b c g > 4 l x : ; : % 8 f X.A a 7 + ",
"  0 :.%.d $ % ; > l l > : : x g > > l S x g x : 8 H H c S c g v S x g 2 x c x : : > : t X...d d 7 + ",
"  9 $.#.a # & : > g c l > 2 b b x > l S v x b w < H H c S c > v S c 2 g b b l : : k : y @.X.f X.9 + ",
"  9 $.%.d # & : g x b c g g S Z c > k S b v D w < H H c S v g b S c g l S S c > > x : s &.o.d f 9 # ",
". p =.:.X.. & g x Z S c g g b S c 2 l S b v S w < J H c S b > b S c l c S G Z g k x : A ;.o.0 p 5 + ",
". a &.%.d X % > x S D S g g S D b x x S b b S w < H G v S b l b D S c b D D S x c b 2 A ;.O.p 0 5 # ",
"+ d &.#.0 + 1 m x b S D c g b D S c b S b c S w < G G b S b x S D S c c S D S b b S c E :.O.d p $ + ",
"+ d &.$.d # I ^ c Z D D S c S H G b b S b c S w < H K G G b c S D D Z c S D D D D G _ -.:.O.d t # . ",
". p $.O.a 8 P >.>.3.w.8.4.4.8.4.<.>.>.7.>.{ >.m z 3.8.>.>.3.7.8.0.8.<.<.<.<.<.>.>.>.| *.;.O.f d $ . ",
". 9 o...0 8 M } 0.t.y.u.u.u.u.y.r.w.w.w.6.2.2.I C e.t.2.9.r.u.u.u.u.r.r.q.r.q.5.5.1.' ] &.#.X.d $ . ",
". 6 f a 7 $ u P ! ! ^ |  . . .| } | ^ ! U U U n M 9.1.U U '  . . . . .} } } } ! U U P W &.$.A a # . ",
"  $ a a 9 # 3 n 4 4 h m M m m M M M j h 4 4 4 < r _ Q j 4 j m m m V m m m M M z 4 j j T =.#.d p $ . ",
"  + p a 9 @ < 3 ; = : > : ; ; ; > : ; ; ; ; ; % - Z v w 2 : ; ; : > : : ; : : : : 2 1 Y =.O.d 0 5 + ",
"  # a a 7 O % ; ; = : l > ; ; ; > g 2 ; : : ; @ - Z b l l 2 : : > l > = : : : ; : k : i $.O...d 6 + ",
"  $ f d , . % : > : : l g ; ; > g x l : 2 2 : - 8 S D b c k : : g l > : > > g : 2 x > i $.$.o.f 7 + ",
". 7 X.f 7 X @ 2 x > > l g ; : g c c l > k l 2 - 8 H K S c k : > g c g : > g l : 2 x g A :.&.#.X.7 . ",
"  7 O.o.0 . & g Z g > l g > : g x b c 2 k c l ; < H K D v k 2 g x Z g > g x l > g l 2 A &.&.$.#.9 . ",
"  9 $.O.p + % k S c k c k > 2 l b S b 2 g b c 1 < H K D c l g c b D x g x c c k l c g N @.$.O.+.9 . ",
". 0 %.O.a # = l S b c Z c > l b S D b > g b S w < G K D v c c b D D b x x b S c b S g N +.X.X.O.7   ",
"  0 &.$.d # n Q D Z b S v g l v S S b g x S S w 8 Z G D b b b S S S S b b S S Z b S F ( &.X.A #.9   ",
"  9 &.%.f 5 U } ) ) >.` ) F F J ` ` ) F / ) K z < H ` ) ` ` ` ` ` ` ` ` ` ) ` ` ` ) { -.%.X...#.0 . ",
". 9 $.:.O.9 P  .2.e.u.u.u.y.e.0.w.w.w.0.9.4.2.P M q.e.4.q.t.u.u.u.u.t.w.w.w.w.w.6.2.| ] #.X.f X.0 + ",
". 7 O.&.X.7 n ~ } 1.6.q.0.0.6.6.5.5.2.,. .} } L L q.q. . .2.q.q.q.0.2.,.,.,.,.,.,.} ~ R #.f d ..9 + ",
". 7 X.$.f $ 4 M m m L I U U ! ! ! ! P M m m M r n ,.[ M m C U U ! ! C M M M M m M j j T @.d p d 7 + ",
"+ 7 ..&.O.7 3 4 4 2 2 1 4 2 1 2 3 2 1 1 1 1 1 ; < Q Z 4 1 1 1 2 2 h 2 2 2 1 1 : 1 2 4 B O.f p d 7 . ",
"O 6 f %.o.- ; 4 g c l g g > g k g g l k k k k - - S S l k k k g k l x l l k g k g g 2 N +.f t a $   ",
". 5 f O.f # = l S S S D b c Z D S S S S S D S q 8 H J D D D S D D S D S D D D D D D g N O.f 0 0 +   ",
"+ 7 f o.d # = g c V Z D c k S G D S b b S S b 1 < H J b S S b S S b S D b b D b S S g N o.d 0 0 + . ",
". 7 d ..p # = w x x c D c 2 Z D b c g c S S l ; 8 J G x Z v c b b l b b v b S x c b g r Y a 9 0 5 . ",
". 5 d f 0 # % > x x c D x g b S l g g l S b w * < H H x c c x c l > k c x b S k g x : e ..p 7 0 5 + ",
". 5 d f p 5 * 1 x l k c l 2 c c g > : g c c 2 - ; S Z k l x g l k > > k g x c > : w : q f 0 7 7 $ . ",
". 7 d d 0 $ = > k 2 > k g : g g > ; : > k k > * 8 Z v > l g > g k : : > > g k > : : : q a 0 5 7 # . ",
"+ - 0 9 5 # ; > 2 : : > : ; : : : ; ; > 2 : ; - - Z x ; : > ; : : = : : = : > : = = ; q a 0 6 5 $ + ",
". # 5 # O . O o X X X X X X X X X X X X o X X . X % % X X X X X X X X o X X X X X X X @ 7 # # # + . ",
". . # . . .                                                                             # . . + . . "
};
