/* XPM */
static char *_645963021424[] = {
/* columns rows colors chars-per-pixel */
"50 50 78 1 ",
"  c #030202",
". c #090605",
"X c #0B0906",
"o c #0B0B0B",
"O c #120B0C",
"+ c #141414",
"@ c #1C1214",
"# c #191718",
"$ c #1C1B1B",
"% c #231416",
"& c #281417",
"* c #261C15",
"= c #281D15",
"- c #261618",
"; c #2A1719",
": c #221C1D",
"> c #2D191A",
", c #32171C",
"< c #331B1D",
"1 c #391C1F",
"2 c #2D2316",
"3 c #302717",
"4 c #312817",
"5 c #34231C",
"6 c #3B241F",
"7 c #39291D",
"8 c #3C1D22",
"9 c #232323",
"0 c #2B2223",
"q c #272828",
"w c #2C2C2C",
"e c #3D2720",
"r c #3A272A",
"t c #362B2D",
"y c #3C2B2D",
"u c #352427",
"i c #3D2D30",
"p c #343434",
"a c #3B3133",
"s c #3C3C3C",
"d c #421E23",
"f c #452126",
"g c #482227",
"h c #432C22",
"j c #4C242A",
"k c #4C2B28",
"l c #53272D",
"z c #463422",
"x c #493125",
"c c #4E3D25",
"v c #523D27",
"b c #563D29",
"n c #412E31",
"m c #5B2A31",
"M c #443234",
"N c #493638",
"B c #632D34",
"V c #3F403F",
"C c #5C432C",
"Z c #60462D",
"A c #654B2F",
"S c #68502F",
"D c #6A4D31",
"F c #6D5231",
"G c #715932",
"H c #785C35",
"J c #434343",
"K c #4B4B4B",
"L c #504E4E",
"P c #535353",
"I c #595757",
"U c #595758",
"Y c #5B5B5B",
"T c #626262",
"R c #84663A",
"E c #876A3B",
"W c #8D6E3D",
"Q c None",
/* pixels */
"o  .o+o.   .o.  ooo  o+#+o.o.oo  ..o+++o.o  o  .oo",
"o+9wpwpp999wppwqqwq99qppwwq9wwq99qq99qw999$###+#+ ",
"oqPUUPYTLJKUTTYPPYYPJKUUPYPKUYPKKPKJsVJJVssppwww+ ",
"opTUYTYPKJKPYTLKPTTYPJLPTTPPYTTYUYKJJVsVVVspppww+ ",
"opYYYTPKKKKPPPPKKUPJspsVKJJVJKKKKPKKKJssVJVssppw+ ",
"+wPYYYKKPUYYKKPKpsw$+#$99999#+#9wsJPKKJsVJJVsspw$.",
"opTTUKKPTTUKVsVp99#. .o..o.o. .+$9wsJKKJJJVsVssw+ ",
"opTYPKLYYUKsspw$ooo            o+o$qpVKKKJVVVssw# ",
"+sTYPLUUKVsspw$o   QQQQQQQQQQQQ   o:wpsKKJJssJVw9+",
"+pTTUPLKspw9:$o QQQQQQQQQQQQQQQQQQ o#9qVJVVsJJVp$o",
".wUTTPKVpw9$++  QQQQQQQQQQQQQQQQQQ  ++$wpsssVJsw$o",
" qPYTTKpp9$-%@. QQQQQQQQQQQQQQQQQQ  @%>#9wspppsw$+",
" qPTTPVwq:->;@  QQQQQQQQQQQQQQQQQQ .@>>%$:wppwpp9o",
"owYTYJpq9->>&@. QQQQQQQQQQQQQQQQQQ .@>>>-$0wsppp9o",
" qPPJs9$8>>>>@. QQQQQQQQQQQQQQQQQQ .@->>>>:9pVsw$+",
" qILVq2:d8>>-@. QQQQQQQQQQQQQQQQQQ .@&>>8j>0sJsp9+",
" wTUs$;gBg>>;@  QQQQQQQQQQQQQQQQQQ .@;>>dBdyJVss9+",
" qPLp#;gBd>>;@. QQQQQQQQQQQQQQQQQQ  @;>>gBdnPJsVq#",
" qPPp#;dmd>>-@. QQQQQQQQQQQQQQQQQQ .@;>>dmdNYKpsq#",
".wTTJO%dl8>>&@  QQQQQQQQQQQQQQQQQQ .@&>>8jdNTJtw9+",
"+pYUp+%dj8-;;@. QQQQQQQQQQQQQQQQQQ .@;>%1jdNTKpw9#",
"+pUPw+%8dkh<;@. QQQQQQQQQQQQQQQQQQ  @%<hkd<MTKpw$o",
"+pYPs#@-;AH6%@  QQQQQQQQQQQQQQQQQQ .@%7HA>%aTKpp$o",
"opPKp$-%;FWb6@  QQQQQQQQQQQQQQQQQQ  @6CWD>%tULsp$o",
"oqKVw9:><DWGz*. QQQQQQQQQQQQQQQQQQ  %zGWD<;aPPJp$o",
".9sp9$>,1ARSc2  QQQQQQQQQQQQQQQQQQ .2CGHA1,MUPJp$.",
" $ppq#->>ZHbz4X QQQQQQQQQQQQQQQQQQ X2zCHZ,;MYPVw$o",
" +wpq#@->CA622X QQQQQQQQQQQQQQQQQQ X225AC>@pYKpw9+",
" $pp:+%8lke>>%  QQQQQQQQQQQQQQQQQQ .%;<ekl1iPKVp9+",
" $sp9o&gBg;>;@  QQQQQQQQQQQQQQQQQQ  @&>&fBgnPPJV9+",
".9JsqO-gBg>>>@. QQQQQQQQQQQQQQQQQQ  @&>>dBdNTYPJ9o",
" 9KKwo&dl8>>%@. QQQQQQQQQQQQQQQQQQ  @>>>dldMYYPKqo",
" qPKw+&dj8->;@. QQQQQQQQQQQQQQQQQQ .@>>&1j8nIPKLq.",
"owUKp#>8j8>>-@. QQQQQQQQQQQQQQQQQQ .@&><8jdnLJJK9 ",
" wYPp$@>8bC8%@. QQQQQQQQQQQQQQQQQQ  @%5Cb1;tIJsKq.",
" qUYV$@-%FRx>@  QQQQQQQQQQQQQQQQQQ .@>xEF&@tIJJKqo",
"oqPTK9-;<SWSh@  QQQQQQQQQQQQQQQQQQ  @hSWD>&yKJsJq+",
".qKYJ9>,<SEGc*  QQQQQQQQQQQQQQQQQQ .*cGED<,iKVpVq#",
"o9JUs$-,1CHAc3X QQQQQQQQQQQQQQQQQQ .2cAHZ1,iKspp9+",
"+9VYK9$-;vAh72X QQQQQQQQQQQQQQQQQQ X47hAv&%tKsws9o",
"+9VUK:-8exx>>=X QQQQQQQQQQQQQQQQQQ .==<xx8>tKstp$ ",
"o$sKs$-dBg>>>@  QQQQQQQQQQQQQQQQQQ .@;;>gBgyKsww+ ",
"+9sJp#>dBg;>;%  QQQQQQQQQQQQQQQQQQ  %&>;gBgyJsww#.",
"o9sVw#>dmd>;%O QQQQQQQQQQQQQQQQQQQQ O%;;fmfrVpww$o",
"o$ssw+>ej8;%o QQQQQQQQQQQQQQQQQQQQQQ O%;8j8yVw9w9+",
"o$ssp$>fj8%O.QQQQQQQQQQQQQQQQQQQQQQQQ O%8jdrsw99#o",
"o$ppw9>8f;O QQQQQQQQQQQQQQQQQQQQQQQQQQ.O;d8upw9:#o",
"+9wq$#@-%O QQQQQQQQQQQQQQQQQQQQQQQQQQQQ O--0pw$9$+",
"++$++oooo.QQQQQQQQQQQQQQQQQQQQQQQQQQQQQQ oO@9###++",
"o++ooo   QQQQQQQQQQQQQQQQQQQQQQQQQQQQQQQQ   +oo+o."
};
