/* XPM */
static char *_646057205859[] = {
/* columns rows colors chars-per-pixel */
"50 50 184 2 ",
"   c black",
".  c #010000",
"X  c #020000",
"o  c #030000",
"O  c #040000",
"+  c #050000",
"@  c #070000",
"#  c #080000",
"$  c #090000",
"%  c #0A0000",
"&  c #0B0000",
"*  c #0C0000",
"=  c #0D0000",
"-  c #0E0000",
";  c #0F0000",
":  c #100000",
">  c #120000",
",  c #130000",
"<  c #150000",
"1  c #160000",
"2  c #170000",
"3  c #180000",
"4  c #190000",
"5  c #1B0000",
"6  c #1C0000",
"7  c #1F0000",
"8  c #200000",
"9  c #220000",
"0  c #230000",
"q  c #240000",
"w  c #250000",
"e  c #260000",
"r  c #290000",
"t  c #2B0000",
"y  c #2C0000",
"u  c #2D0000",
"i  c #2F0000",
"p  c #310000",
"a  c #320000",
"s  c #330000",
"d  c #340000",
"f  c #350000",
"g  c #360000",
"h  c #370000",
"j  c #380000",
"k  c #390000",
"l  c #3B0000",
"z  c #3C0000",
"x  c #3D0000",
"c  c #3F0000",
"v  c #400000",
"b  c #420000",
"n  c #430000",
"m  c #440000",
"M  c #450000",
"N  c #460000",
"B  c #480000",
"V  c #490000",
"C  c #4D0000",
"Z  c #4F0000",
"A  c #500000",
"S  c #510000",
"D  c #520000",
"F  c #530000",
"G  c #560000",
"H  c #590000",
"J  c #5B0000",
"K  c #5C0000",
"L  c #5E0000",
"P  c #5F0000",
"I  c #610000",
"U  c #620000",
"Y  c #630000",
"T  c #640000",
"R  c #650000",
"E  c #660000",
"W  c #670000",
"Q  c #680000",
"!  c #690000",
"~  c #6A0000",
"^  c #6B0000",
"/  c #6C0000",
"(  c #6D0000",
")  c #6F0000",
"_  c #710000",
"`  c #720000",
"'  c #730000",
"]  c #740000",
"[  c #750000",
"{  c #770000",
"}  c #780000",
"|  c #790000",
" . c #7A0000",
".. c #7B0000",
"X. c #7C0000",
"o. c #7D0000",
"O. c #7E0000",
"+. c #7F0000",
"@. c #800000",
"#. c #820000",
"$. c #830000",
"%. c #840000",
"&. c #850000",
"*. c #860000",
"=. c #870000",
"-. c #880000",
";. c #890000",
":. c #8A0000",
">. c #8B0000",
",. c #8C0000",
"<. c #8D0000",
"1. c #8E0000",
"2. c #8F0000",
"3. c #900000",
"4. c #910000",
"5. c #920000",
"6. c #930000",
"7. c #940000",
"8. c #950000",
"9. c #960000",
"0. c #970000",
"q. c #980000",
"w. c #990000",
"e. c #9A0000",
"r. c #9B0000",
"t. c #9C0000",
"y. c #9D0000",
"u. c #9E0000",
"i. c #9F0000",
"p. c #A00000",
"a. c #A10000",
"s. c #A20000",
"d. c #A30000",
"f. c #A40000",
"g. c #A50000",
"h. c #A60000",
"j. c #A70000",
"k. c #A80000",
"l. c #A90000",
"z. c #AA0000",
"x. c #AB0000",
"c. c #AC0000",
"v. c #AD0000",
"b. c #AE0000",
"n. c #AF0000",
"m. c #B00000",
"M. c #B10000",
"N. c #B20000",
"B. c #B30000",
"V. c #B40000",
"C. c #B50000",
"Z. c #B60000",
"A. c #B70000",
"S. c #B80000",
"D. c #B90000",
"F. c #BA0000",
"G. c #BB0000",
"H. c #BC0000",
"J. c #BD0000",
"K. c #BE0000",
"L. c #BF0000",
"P. c #C00000",
"I. c #C10000",
"U. c #C20000",
"Y. c #C30000",
"T. c #C60000",
"R. c #C90000",
"E. c #CA0000",
"W. c #CE0000",
"Q. c #D20000",
"!. c #D30000",
"~. c #D40000",
"^. c #D60000",
"/. c #DC0000",
"(. c #DE0000",
"). c #E10000",
"_. c #E50000",
"`. c #ED0000",
"'. c #F10000",
"]. c #F20000",
"[. c #F30000",
"{. c #FB0000",
"}. c red",
"|. c None",
/* pixels */
"|.|.|.|.|.|.|.|.|.|.|.|.|.|.|.|.|.|.|.|.|.|.|.|.|.|.|.|.|.|.|.p.p.p.p.p.|.|.|.|.|.|.|.|.|.|.|.|.|.|.",
"|.|.|.|.|.|.|.|.|.|.|.|.|.|.|.|.|.|.|.|.|.|.|.|.|.|.|.|.|.|.|.|.p.p.p.q.;.|.|.|.|.|.|.|.|.|.|.|.|.|.",
"|.|.|.|.|.|.|.|.|.|.|.|.|.|.|.|.|.|.|.|.|.|.|.|.|.|.|.|.|.|.|.|.|.p.g.y.;.*.|.|.|.|.|.|.|.|.|.|.|.|.",
"|.|.|.|.|.|.|.|.|.|.|.|.|.|.|.|.|.|.|.|.|.|.|.|.|.|.|.|.|.|.|.|.|.|.Z.N.y.q.p.|.|.|.|.|.|.|.|.|.|.|.",
"|.|.|.|.|.|.|.|.|.|.|.|.|.|.|.|.|.|.|.|.|.|.|.|.|.|.|.|.|.|.|.|.|.|.Y.H.g.y.y.1.|.|.|.|.|.|.|.|.|.|.",
"|.|.|.|.|.|.|.|.|.|.|.|.|.|.|.|.|.|.|.|.|.|.|.|.|.|.|.|.|.|.|.|.|.|.P.S.g.p.y.*.O.|.|.|.|.|.|.|.|.|.",
"|.|.|.|.|.|.|.|.|.|.|.|.|.|.|.|.|.|.|.|.|.|.|.|.|.|.|.|.|.|.|.|.|.|.|.|.S.b.y.*.O.|.|.|.|.|.|.|.|.|.",
"|.|.|.|.|.|.|.|.|.|.|.|.|.|.|.|.|.|.|.|.|.|.|.|.|.|.|.|.|.|.|.|.|.|.|.|.P.N.y.1.;.|.|.|.|.|.|.|.|.|.",
"|.|.|.|.|.|.|.|.|.|.|.|.|.|.|.|.|.|.|.|.|.|.|.|.|.|.|.|.|.|.|.|.|.|.|.|.P.N.y.y.y.|.|.|.|.|.|.|.|.|.",
"|.|.|.|.|.|.|.|.|.|.|.|.|.|.|.|.|.|.|.|.|.|.|.|.|.|.|.|.|.|.|.|.|.|.|.H.N.g.y.6.1.|.|.|.|.|.|.|.|.|.",
"|.|.|.|.|.|.|.|.|.|.|.|.|.|.|.|.|.|.|.|.|.|.|.|.|.|.|.|.|.|.|.|.|.|.Y.S.p.q.q.*.|.|.|.|.|.|.|.|.|.|.",
"|.|.|.|.|.|.|.|.|.|.|.|.|.|.|.|.|.|.|.|.|.|.|.|.|.|.|.|.|.|.|.|.|.P.P.S.g.6.*.|.|.|.      |.|.|.|.|.",
"|.|.|.|.|.|.|.|.|.|.|.|.|.|.|.|.|.|.|.|.|.|.|.|.|.|.|.|.|.|.|.|.P.P.P.P.Z.y.|.|.|.          |.|.|.|.",
"|.|.|.|.|.|.|.|.|.|.|.|.|.|.|.|.|.|.|.|.|.|.|.|.|.|.|.|.|.|.|.H.H.P.H.H.S.S.|.|.|.            |.|.|.",
"|.|.|.|.|.|.|.|.|.|.|.|.|.|.|.|.|.|.|.|.|.|.|.|.|.|.|.|.y.b.H.b.b.H.N.l.l.l.;.8                 |.|.",
"|.|.|.|.|.|.|.|.|.|.|.|.|.|.|.|.|.|.|.|.|.|.|.|.|.|.|.|.l.Z.H.l.l.H.Z.l.p.p.6.G w               |.|.",
"|.|.|.|.|.|.|.|.|.|.|.|.|.|.|.|.|.|.|.|.|.|.|.|.|.P.N.g.Z.P.H.b.l.S.P.S.g.p.p.y.J O             |.|.",
"|.|.|.|.|.|.|.|.|.|.|.|.|.|.|.|.|.|.|.|.|.|.P.b.l.H.N.p.S.S.l.N.Z.b.S.H.g.p.y.8.D               |.|.",
"|.|.|.|.|.|.|.|.|.|.|.|.|.|.|.|.|.|.|.|.|.H.Z.b.l.Z.b.b.N.N.l.Z.N.p.b.N.g.p.y.*.L r *           |.|.",
"|.|.|.|.|.|.|.|.|.|.|.|.|.|.|.|.|.|.|.|.P.S.g.Z.S.l.N.S.l.b.H.l.p.p.p.p.p.p.y.;.$.( 8         |.|.|.",
"|.|.|.|.|.|.|.|.|.|.|.|.|.|.|.|.|.|.|.P.N.b.Z.S.P.Z.N.b.N.H.H.b.y.p.b.Z.Z.l.p.q.1.| w         |.|.|.",
"|.|.|.|.|.|.|.|.|.|.|.|.|.|.|.|.|.|.|.H.N.l.Z.H.H.S.N.l.Z.S.S.p.y.g.N.S.P.N.p.q.6.{ w         |.|.|.",
"|.|.|.|.|.|.|.|.|.|.|.|.|.|.|.|.H.l.l.P.H.Z.g.N.H.l.b.S.l.g.p.1.8.Z.N.l.S.Z.y.;.$.{ 8         |.|.|.",
"|.|.|.|.|.|.|.|.|.|.|.|.|.|.|.Z.N.N.S.H.S.N.N.b.b.N.N.b.8.6.y.;.6.S.S.N.b.g.y.8.;.{ w       |.|.|.|.",
"|.|.|.|.|.|.|.|.|.|.|.|.|.|.P.N.y.Z.P.S.b.l.S.b.l.S.b.8.;.1.q.;.6.H.P.Z.l.g.g.p.q.O.w     |.|.|.|.|.",
"|.|.|.|.|.|.P.P.|.|.|.|.|.g.H.l.;.N.S.l.N.Z.l.N.S.l.8.*.8.8.*.O.8.S.N.l.S.H.Z.g.p.1.y     |.|.|.|.|.",
"|.|.|.|.|.|.P.P.|.|.|.|.b.b.p.y.y.p.g.b.H.S.g.l.N.g.q.6.6.1.*.$.| ( 6.Z.H.S.N.g.g.8.y     |.|.|.|.|.",
"|.|.|.|.|.|.P.P.P.|.|.y.b.N.8.y.S.6.8.H.P.Z.p.p.y.y.y.q.*.| ' ' Z : ^ P.P.Z.g.p.g.6.c O   |.|.|.|.|.",
"|.|.|.|.|.|.P.P.P.y.;.y.q.8.l.H.H.6.6.S.Z.g.p.p.q.1.;.;.*.L w 7 < O E N.P.H.Z.g.p.y.{ l O |.|.|.|.|.",
"|.|.|.|.|.|.P.H.N.6.$.1.6.y.S.S.g.;.8.H.Z.g.8.y.y.;.^ D D s O     O g | b.H.Z.g.y.y.q.( g < |.|.|.|.",
"|.|.|.|.|.|.P.S.g.1.*.*.p.H.P.l.$.O.8.S.P.b.;.6.q.$.b O O O           w $.y.8.y.p.p.p.8.| y   |.|.|.",
"|.|.|.|.|.P.P.P.Z.N.l.l.Z.Y.P.g.O.O.1.l.b.g.8.6.| l <                 * r s N 1.Z.Z.l.p.6.g   |.|.|.",
"|.|.|.|.|.P.S.S.P.S.S.P.P.P.P.g.$.*.8.g.g.y.8.1.^ <                         : J 1.l.g.l.g.c   |.|.|.",
"|.|.|.|.|.P.b.b.H.N.b.H.P.P.P.g.*.6.g.S.b.q.*.*.^ <                           * b *.q.b.b.N   |.|.|.",
"|.|.|.|.|.).P.Z.H.W.!.P.P.P.Y.S.g.8.q.b.Z.l.8.1.^ 4               |.|.      & g L O.;.| D 4   |.|.|.",
"|.|.|.|.|.{.^.P.!.`.'.R.H.S.Z.Z.b.1.;.p.N.Z.g.6.^ <               |.|.|.    : E *.$.;.L &     |.|.|.",
"|.|.|.|.|.{.^.W.'.{.'.R.N.p.6.;.*.$.;.y.g.g.p.6.E <         |.|.|.|.|.|.|.  : E $.$.8.^ &     |.|.|.",
"|.|.|.|.!./.H.H.)._.^.Z.b.b.p.8.O.D L q.p.p.y.8.^ 4       |.|.|.|.|.|.|.|.  & s b b D g O   |.|.|.|.",
"|.|.|.H.H.H.b.l.S.H.Z.g.l.Z.S.y.U 4 s q.l.p.p.8.E 4     |.|.|.|.|.|.|.|.|.|.              |.|.|.|.|.",
"|.|.H.b.N.H.l.p.l.l.l.p.q.6.8.U 7   s 8.Z.Z.p.6.^ <     |.|.|.|.|.|.|.|.|.|.|.          |.|.|.|.|.|.",
"|.Y.H.N.b.Z.l.g.p.{ E 1.' V V r O   g 8.N.b.8.( c *     |.|.|.|.|.|.|.|.|.|.|.|.      |.|.|.|.|.|.|.",
"N.Z.H.H.N.p.8.6.1.b w E c O O       g 8.l.q.$.c       |.|.|.|.|.|.|.|.|.|.|.|.|.|.|.|.|.|.|.|.|.|.|.",
"g ( b.N.b.y.D w y V D y :           c l.N.q.*.l       |.|.|.|.|.|.|.|.|.|.|.|.|.|.|.|.|.|.|.|.|.|.|.",
"  l E E ^ E c w r V V *         O 8 U b.g.*.L w       |.|.|.|.|.|.|.|.|.|.|.|.|.|.|.|.|.|.|.|.|.|.|.",
"|.|.: : * 4 D { ' g O           * ( y.p.6.U 4         |.|.|.|.|.|.|.|.|.|.|.|.|.|.|.|.|.|.|.|.|.|.|.",
"|.|.D D D Z c s s <       |.|.  * ' l.y.6.E *     |.|.|.|.|.|.|.|.|.|.|.|.|.|.|.|.|.|.|.|.|.|.|.|.|.",
"|.|.U U E J 8           |.|.|.|.g O.g.p.| N *     |.|.|.|.|.|.|.|.|.|.|.|.|.|.|.|.|.|.|.|.|.|.|.|.|.",
"|.|.* * : * O         |.|.|.|.|.1.q.g.8.b &     |.|.|.|.|.|.|.|.|.|.|.|.|.|.|.|.|.|.|.|.|.|.|.|.|.|.",
"|.|.|.|.|.|.|.|.|.|.|.|.|.|.|.|.G ;.*.V <     |.|.|.|.|.|.|.|.|.|.|.|.|.|.|.|.|.|.|.|.|.|.|.|.|.|.|.",
"|.|.|.|.|.|.|.|.|.|.|.|.|.|.|.|.* { ' &     |.|.|.|.|.|.|.|.|.|.|.|.|.|.|.|.|.|.|.|.|.|.|.|.|.|.|.|."
};
