/* XPM */
static char *_645986405582[] = {
/* columns rows colors chars-per-pixel */
"50 50 246 2 ",
"   c #001D00",
".  c #000900",
"X  c #012C00",
"o  c #002500",
"O  c #013400",
"+  c #023C00",
"@  c #0A3D00",
"#  c #083202",
"$  c #1A3508",
"%  c #034400",
"&  c #0B4400",
"*  c #054B00",
"=  c #0C4B01",
"-  c #0B4D0A",
";  c #0E4409",
":  c #144501",
">  c #134C01",
",  c #1A4D03",
"<  c #134D09",
"1  c #065302",
"2  c #0C5201",
"3  c #0D5A01",
"4  c #0C530B",
"5  c #0D5B0A",
"6  c #075800",
"7  c #135402",
"8  c #1A5403",
"9  c #145B03",
"0  c #1A5C02",
"q  c #14540A",
"w  c #1A530B",
"e  c #145C0B",
"r  c #1C5C0B",
"t  c #0D5410",
"y  c #1E5613",
"u  c #145A12",
"i  c #1D5B14",
"p  c #1C5B1A",
"a  c #195416",
"s  c #225603",
"d  c #225C02",
"f  c #235D0D",
"g  c #295E0C",
"h  c #22550C",
"j  c #254E14",
"k  c #235C13",
"l  c #2A5D11",
"z  c #26591B",
"x  c #224E0F",
"c  c #0F610A",
"v  c #146303",
"b  c #1C6303",
"n  c #1C6903",
"m  c #15630B",
"M  c #1C630B",
"N  c #1D6A0B",
"B  c #146A07",
"V  c #0E6114",
"C  c #146413",
"Z  c #1B6313",
"A  c #1C6C13",
"S  c #1E641B",
"D  c #1D6C1A",
"F  c #156615",
"G  c #1E7213",
"H  c #1D7018",
"J  c #1E7004",
"K  c #236303",
"L  c #2B6405",
"P  c #236C05",
"I  c #2C6D01",
"U  c #22640C",
"Y  c #246C0B",
"T  c #2B6C0D",
"R  c #2A650D",
"E  c #326C0D",
"W  c #396E02",
"Q  c #25720C",
"!  c #2B750B",
"~  c #2B7807",
"^  c #33740C",
"/  c #337A0B",
"(  c #387708",
")  c #236313",
"_  c #2B6415",
"`  c #246B13",
"'  c #2B6D15",
"]  c #25651A",
"[  c #2A641A",
"{  c #256B1B",
"}  c #2C6C1B",
"|  c #326D14",
" . c #356A18",
".. c #237215",
"X. c #2B7313",
"o. c #267815",
"O. c #2B7B14",
"+. c #25731A",
"@. c #2C731C",
"#. c #2C7A1B",
"$. c #26791D",
"%. c #337414",
"&. c #3B7614",
"*. c #347B14",
"=. c #3B7D15",
"-. c #33741D",
";. c #3B751C",
":. c #337C1B",
">. c #3A7C1C",
",. c #236B20",
"<. c #2E6C22",
"1. c #276522",
"2. c #326C23",
"3. c #326E2A",
"4. c #356927",
"5. c #237422",
"6. c #2C7422",
"7. c #267A21",
"8. c #2C7B24",
"9. c #2A792A",
"0. c #327323",
"q. c #3B7322",
"w. c #347C23",
"e. c #3B7C24",
"r. c #347D29",
"t. c #3B7C2B",
"y. c #37742D",
"u. c #2B7830",
"i. c #3B7C37",
"p. c #447B14",
"a. c #427619",
"s. c #447D1B",
"d. c #417E09",
"f. c #427B24",
"g. c #417A2B",
"h. c #497927",
"j. c #407F30",
"k. c #427D39",
"l. c #3A820C",
"z. c #2E821C",
"x. c #2D8114",
"c. c #358216",
"v. c #3C8216",
"b. c #33821D",
"n. c #3B831D",
"m. c #3C8B1E",
"M. c #36891F",
"N. c #3D941F",
"B. c #2D8123",
"V. c #2F882C",
"C. c #348223",
"Z. c #3B8323",
"A. c #3C8B24",
"S. c #34832B",
"D. c #3C842B",
"F. c #348A2B",
"G. c #3C8A2C",
"H. c #378B22",
"J. c #3D922A",
"K. c #3B9125",
"L. c #3C8434",
"P. c #3D8C33",
"I. c #368837",
"U. c #3A9639",
"Y. c #43841B",
"T. c #49831B",
"R. c #438B1F",
"E. c #478718",
"W. c #518B1C",
"Q. c #47911C",
"!. c #438523",
"~. c #4A8525",
"^. c #448C24",
"/. c #4B8D23",
"(. c #43832B",
"). c #4B842B",
"_. c #448C2C",
"`. c #4B8C2D",
"'. c #538B26",
"]. c #548E2C",
"[. c #538627",
"{. c #449125",
"}. c #4C9225",
"|. c #45942A",
" X c #4C922C",
".X c #4C992D",
"XX c #479A27",
"oX c #529522",
"OX c #53942B",
"+X c #549A2B",
"@X c #589624",
"#X c #438433",
"$X c #4A8632",
"%X c #438B32",
"&X c #4C8D34",
"*X c #428B3A",
"=X c #4A8A3A",
"-X c #4A873B",
";X c #578C38",
":X c #449333",
">X c #4B9333",
",X c #4D9B35",
"<X c #43953B",
"1X c #4C953C",
"2X c #4C9B39",
"3X c #549435",
"4X c #5D9633",
"5X c #549D33",
"6X c #51963C",
"7X c #559D3C",
"8X c #599E3C",
"9X c #5C9F35",
"0X c #649A39",
"qX c #55A42E",
"wX c #4CA236",
"eX c #54A23D",
"rX c #5AA43C",
"tX c #59A434",
"yX c #62A639",
"uX c #74AC3C",
"iX c #6CB53D",
"pX c #66A12D",
"aX c #3D9841",
"sX c #4C9E43",
"dX c #4C9945",
"fX c #539B42",
"gX c #599847",
"hX c #6A9C48",
"jX c #689B50",
"kX c #42A345",
"lX c #4DA048",
"zX c #54A343",
"xX c #5BAA44",
"cX c #5BA84B",
"vX c #66AC49",
"bX c #6BAD4B",
"nX c #63A945",
"mX c #69B14B",
"MX c #7ABA4F",
"NX c #76AD58",
"BX c #69B454",
"VX c #76BA58",
"CX c #73AE4C",
"ZX c #74C05C",
"AX c #79C565",
"SX c #81C25C",
/* pixels */
"CXpX XcX<Xm 5 D +XE.Y #Xt.f w 8 d / Y.L # # q.Z.X.7 3 w & @ + + 2 T } ) - % 9 !.} * - = = ^ {.f.$ . ",
"0X'.!.8X2XG F +.^./ d ' f : > 7 d =.Q.%.: : e.O.0 r ` 6., @ < = 7 R R e 4 % 2 -.} = t u 2 X.^.>.j $ ",
"s.!.'.R.v.O...8.:.P d s > : = 0 T Y.'.s.l g :...= k @.(. ., , l d Y Y M 2 * = ..` e ] } 2 ! v.v.f.f.",
"R >.'.W K T @.S.F.^.[.a.a.~.Z.Z.!.Y.=.^ R 7 m 4 - y w.`.).g X h ).s.n.w.Z e M { ' ' q.} 7 Y / I }.8X",
"v K  .a.g > #.S.:._.].s.;XNXnX8X X~.| r 7 e 1.u i } #X*Xg.w o l f.T *.Z.U M ` 9 ` D.&Xe.7 Y / ~ Q.tX",
"9 = = ;Xh.X ' _.w.Z.q.s h.NXbXxX`.`.' = * Z i.u.] r.=XdX} * @ h 8 = P X.2 9 M * 0 e.;Xe.0 Y =.v.=.A.",
"u * % ;X$X+ r g.=XdXt.= w h.`.3X3X`.Z.` e ,.aXy.m ..:XzX` % & % 2 b >.>.9 9 U 7 7 r f U R %.>.' w.Z.",
"C = & y.g.0 w } -XgX-X2 = ) X.Y._.-.b.G.V.,.4.z A N H.:X$.m * % = R e.0.9 r ) 0 = & & r %.&.%.' ' @.",
"+.m 4 p 0.j.w % _ 6XBXL.m 7 -.` 2 3 +.sXsXC.=  .>X_.@.{ Z.#.e S p + y 1.- u ] k : = ) q.s.p.&.T Y M ",
"#.` t % Z *Xz & ) (.fX1X@.9 ..@.m 1 ..sXcX>Xs ].SX Xw @ t.w.% 1.z O j 3.- t ] < @ @ e U s &.s.T R ` ",
"b.8.F % b `.Z 2 ) :.e.%XD.:.....$.F +.S.sX:XI 0XMX0Xj   ) -.7 ) k q l 1.Z Z w + O + & * o x 2.` { @.",
"O.o.5.{ n.,Xm % M ' X.} Z.>X:...N 8.@.Q ,X:X0 L p.;Xz   > -.g.8 8 -X4.h 6.A - # @ w q +   # w ] { { ",
"K.o.{ w.XX|.` 4 2 9 R %.>.Z.G.$.c >X+Xl.m.XX^.m.~.8Xh.h 8 ' ].> 7 gXz @ ,.r.] % O < q +   o - ) Z u ",
"|.O.` #.m.XXF.D t % 7 s.R 7 F.B.n 5XiXoXv.^.VXmX8XhX3Xa.^ T %.2 7 t.: O e S.#X& & q 4 - X ; r ) e * ",
".XG.+.m n m.|.P.9.; & 2.k * ` n.oXW.E.! ! Z.cXlXF.S.O.K *.n.N 3 9 ] ; + % { t.) 0.y.{ i y k ' ' e = ",
"A._.D.3 v x.b.F.L.] < y u 4 6 M.yXE.L b *.Z.F.7.B.G.C.N X.#.G H { ] - % C +.` ' e.%X1.q ) i R w.] q ",
"-.`.qXJ 3 M X...D.y.0.{ u F 5 ..}.}.Q 9 b.A.1 Z I.lXaXS.{ ` @.S.D.0.w > *.%.' _ ' -.7 q w > b D.6.u ",
", >.rXQ.M & r @.` %X%X{ u.I.5.{ Y :.n.X.J.>X@.L.lXlX<X9.- + 9 D.t.> > ' }.!.-.j.-.7 * & k & & t.] 2 ",
"= -.qXXX` + r 0.M @.S.o.u.u.5.M 2 U :.!..X{...G.sX<X<XI.= + 9 e.[ O > ;.!.-.' gXg.% % & < + = y.1.q ",
"] D.K.N.` & ] } 9 9 Q B.V.5.Z 3 = 0 U :..X^.b Y P.F.sXsX{ U X.X.r + d %.=.8 > gX(.& 8 q O O < k.t.{ ",
"= 9 x.wXL.4 i ] { *.*.}.>Xr.A A @.' f d n.XX*.N m m P.BX1Xe.%.Y ) r E R.}.7 X 4.!.E %.k O o & t.0.m ",
"7 r x.wX*Xu w i ) ` / nX8X@.@.D.3X-._ 8 T ^..Xc.3 * C.AXAX,XU K -.#X!.p.=.7 # _ s.T.`.0.O o & r.} 9 ",
"f.3XwXM...) w 2 4 1 ..eXZ.b &.~.`._ k [ %.R..XO.n K H.BXVX>X7 7 @.6X~.T 9 * > _ W &.yX).o o i #XX.0 ",
"_ ;.{.K.w.M = e I.I.S.C.T 0 Y./.`.-.g l *.^.{.! n *.n.b.D.@.= 7 { _.&X&XX.f 8 8 d d '.e.; p @.e.*.Y ",
"8 K c.OX(.d 7  .BXAXcXm 2 ` R./.^.^ L R e.&Xt.A n 3Xm.9 6 4 7 7 Y w.%XfX%X} d 8 8 I %.-.) 3.C.Q X.^ ",
"~.Y.>.Y.>.' d &.mXZXcXc % A _..X=.K d ' (.#X9.8.|.vX.XX.@.,.w 7 ..fX1XU 7 9 P E.E./ *.0.M ' ..Y P P ",
"T.Y.%.r r } E ;.Y.yXxXx.A D ` D._.T K K } } Z { H.+Xm...S 1.1.7 M ,XA.N e = K tX@XP :.w.! Q Q O.*.o.",
"( E.| & * @.' T b K.wXV.U.r.e O.9X/.X.0 7 2 e { +.b.*.Y 5 S y.= 6 Z.|.|.6.7 n iXqX0 Y w.c.O.O.b.w.8.",
"W.E.R # = S.{ 3 C B.U.U.kXfXe.s.+X^.n.@.9 7 +.9.S.7.r.D.A { 6.* * D.eX:Xe 8 *.rX_.9 7 { z.M.#.m 5 t ",
"+X*.h > ` %X$.5 F 9.U.kXlX%X| &.OX*.o.D.>.` @.5.u.D r.1Xr.` U > 2 @.zX,X0 Y Z.A.w.u ) } O.H.b.* % & ",
"z.m 7 k #.F.$...` #.V.kXU.5.2 ' }.P B #.>X!.A 5 V V { 9.S.w.X.X.K 7 n.wXY.Y.n.o.{ S -.:.o.z.O.0 b d ",
"C 1 & w A G ` ..n.Y G F.V.V.S.D.n.K n O.7X7XA 1 1 F e 2 6.%Xe.n...1 J A.^./.G.$.t - Y X.N +.#.Z.=.p.",
"3 % O i i 2 U X.=.T Y C.m..XvXqX^ ( ( oXOX`.b.3 1 ' 7 % Z 8.%X|.C.B B z.{..XG.D 4 % M ..A F 5.%X}.@X",
"M % O 3.3.* R &.E %._.rXtXpXMXrXn.Q.pXuX>.b H.o.b e.} * 1 e 6.F.K.z.H H J.J.$.3 t F F.o.v D 7.` n.oX",
"t.r % dXi.+ %.!.U M C.7X.X&.n.A.:Xb.m.tXX.v K.G.:.w.' r e = q D.,X|.$.G z.K.z.c 5 5.$.B v C.r.2 ` D.",
"q._ , g.3.= ' >.9 3 ..>X X=.r w.zXB.Q O...N O.H._.e.X.-.{ 2 % D.|.Y ` +.o.M.K.G D 5.G v n >X>X7 7 i ",
"q ] 2.w < ] e 2 9 v A F.bXVX;.e.nX<X#.N ....X...0.=X(.e.' r = e.w.% 1 ` *.c.v.O...8.C.*.P  X7Xr & O ",
"= i 2.+ & <.q 7 7.G C C.bXVX_ _ gXcXS.m 6 M @.U i #XgX7X-.0 & w.t.* & i O.{.XX~ Y @.` ` *.Z.>.e.y @ ",
"* e _ > = i 7 ] L.S...B._.(.8 k %XfXP.N 6 M -.U w ] 6XmXD.2 % ' t.<.a - M ^.tX~ P ! 2 2 @.M 0 `.q.R ",
"1 { t.-.0 % & = S P.U.o.U ` q.} -.F.P.8.S.|.C.' u & Y 7X2XS.` 2 _ dXp + M %.Q.l.=.X.U 7 q + 7 &X7X,X",
"1 D t.' 7 & @ & < L.zX:.N M #X0.e e 5.%X<X2X2X&Xg.: 0 _.<XP.k.+ , hX_ O q ` ! m.M.P Y ` Y > , k D.zX",
"1 N } 7 > _ : & 8 #XfX_.@.` t.6.2 % 0 t._.5XmXNXjX_ E ^.r.t.k.: > 4X| % q S +.G.c.n n -.OX;.> O N :X",
"v ! !.&.>.f.@ O q.;XL.5.Z 4 C e 8 d L p./.+X9XbXhXh.T.'.Z.w.t.U 0 I ( ^ e u.fXG.x.b 3 ! vX3X_ O 5 F.",
"v Y >.>.!.;.@ : q.-X#X) q - Z Z 8 E p.p.Y.Y.=.p.h.a.s.^.H.:.r.@.I I E.^.0.t.1XZ.c.N 9 X.yXOX .* e #.",
"2 9 R U U r 8 w s q.$X} w q r.6.r ' [.'.E 0 > * @ > 0 b o.8.8.+.*.Q.{.n.D.D.e.*.! *.0.t.`.!.' * 3 A ",
"= 8 _ _ Z * = @ : s  .0 w ] %XY + 8 s.'.E 7 > = h  .| b A.F.F B O.tX5X.X7X6XA.T P -.Z.D.e.Z.` 2 9 o.",
": : w 1.S % % + & s R d k q.!.b O r ( ( E d b T T &.^ E `.D.m 5 6.cX&XC.rX,XC.M 9 Q c.n.w.) q = Z $.",
"8 @ O w i u * % > ;.g.q._ ` n.X.q ) ^ ^ E &.>./.~.8 s ( s.Z.r.Z ] fX` 9 c.O.` M M n ~ %.} = + i M m ",
"k > : > e e = 7 R ' z , < ) w.:.0 U K 0 R >.7XA.%.0 W @Xs.*.D.3 9 %X:.Y =.O.Y K ! >.b v | 8 > } { m ",
"Z ) f 8 > 7 = e } ) : o + e w.X.0 9 7 2 Y Z.zXH.n K T.uX!.:.Z.2 2 D.e.*.^.=.P K / Y.r 9 ' d U t.@.M "
};
